<?xml version="1.0" encoding="UTF-8"?>
<svg xmlns="http://www.w3.org/2000/svg" id="Layer_1" version="1.1" viewBox="0 0 128 128" width="256" height="256">
  <!-- Generator: Adobe Illustrator 29.1.0, SVG Export Plug-In . SVG Version: 2.1.0 Build 142)  -->
  <defs>
    <style>
      .st0 {
        fill: #010101;
      }

      .st1 {
        fill: #e3d6a4;
      }
    </style>
  </defs>
  <rect class="st1" x="5.34" y="4.55" width="118.86" height="118.57"/>
  <g>
    <path class="st0" d="M58.69,63.67H5.36C2.42,63.67.03,66.07.03,69.02v53.47c0,2.95,2.39,5.35,5.33,5.35h53.33c2.94,0,5.33-2.39,5.33-5.35v-53.47c0-2.95-2.39-5.35-5.33-5.35ZM58.62,122.42H5.31v-53.33h53.3v53.33Z"/>
    <polyline class="st0" points="26.83 68.89 26.83 75.81 32.16 76.91 32.16 68.89 32.16 76.91 32.16 68.89 26.83 68.89 32.16 68.89"/>
    <g>
      <path class="st0" d="M37.16,81.26c-1.99-2.49-4.91-4.87-7.32-6.79-.44-.33-1-.31-1.41.05-2.26,2.08-3.61,4.62-5.42,7.23-4.03,5.79-6.05,11.81-5.86,17.43.3,8.69,7.95,15.48,15.43,15.22s11.94-7.47,11.63-16.17c-.2-5.62-2.63-11.48-7.06-16.98ZM32.48,111.54c-6.11.2-12.61-5.34-12.87-12.45-.36-10.24,7.17-19.23,9.63-21.64,2.62,2.24,12.15,10.63,12.51,20.87.24,7.11-3.16,13-9.27,13.22ZM39.83,100.06c-.51,4.27-3.25,7.69-6.87,8.58-.07.01-.14.02-.2.03-.68.02-1.25-.6-1.28-1.39-.02-.7.39-1.31.98-1.45,2.53-.59,4.6-3.18,4.93-6.16.09-.78.7-1.33,1.38-1.22.67.11,1.15.83,1.06,1.62h0Z"/>
      <path class="st0" d="M32.13,114.76c-7.93,0-15.03-7.16-15.33-15.57-.2-5.68,1.85-11.78,5.92-17.63.45-.65.88-1.3,1.29-1.94,1.26-1.93,2.45-3.76,4.17-5.35.55-.48,1.29-.5,1.86-.07,2.54,2.03,5.41,4.39,7.38,6.85h0c4.47,5.56,6.93,11.5,7.13,17.18.32,9.32-4.71,16.27-11.97,16.52-.15,0-.3,0-.46,0ZM29.16,74.58c-.18,0-.36.07-.51.2-1.66,1.52-2.82,3.31-4.06,5.21-.42.64-.85,1.3-1.3,1.96-3.99,5.73-5.99,11.68-5.8,17.22.25,7.27,6.78,15.18,15.07,14.89,6.86-.24,11.61-6.89,11.3-15.81-.19-5.53-2.61-11.33-6.98-16.77h0c-1.92-2.4-4.76-4.74-7.26-6.74-.14-.11-.3-.16-.46-.16ZM32.16,111.89c-5.94,0-12.63-5.36-12.9-12.79-.41-11.81,9.32-21.49,9.73-21.9l.23-.22.24.21c7.91,6.74,12.39,14.24,12.63,21.12.26,7.78-3.69,13.36-9.61,13.58h0c-.11,0-.22,0-.33,0ZM29.26,77.93c-1.5,1.55-9.67,10.48-9.3,21.16.26,7.16,6.8,12.32,12.51,12.11h0c5.51-.2,9.19-5.49,8.94-12.86-.23-6.61-4.54-13.85-12.14-20.41ZM38.59,98.78c-.2,0-.35.08-.46.16-.22.17-.37.45-.41.77-.34,3.12-2.53,5.84-5.2,6.46-.42.1-.73.57-.71,1.1.02.59.42,1.05.9,1.05.05,0,.11,0,.17-.02,3.46-.84,6.11-4.17,6.6-8.28.07-.6-.28-1.15-.77-1.23-.04,0-.08,0-.12,0Z"/>
    </g>
  </g>
  <g>
    <path class="st0" d="M64.04,69.02v53.47c0,2.95,2.39,5.35,5.33,5.35h53.33c2.95,0,5.33-2.39,5.33-5.35v-53.47c0-2.95-2.39-5.35-5.33-5.35h-53.33c-2.94,0-5.33,2.39-5.33,5.35ZM69.45,69.08h53.3v53.33h-53.3v-53.33Z"/>
    <polyline class="st0" points="95.9 68.89 101.24 68.89 95.9 68.89 95.9 76.91 95.9 68.89 95.9 76.91 101.24 75.81 101.24 68.89"/>
    <g>
      <path class="st0" d="M105.91,82.5c-1.55-2.78-4.04-5.61-6.1-7.9-.38-.4-.93-.47-1.4-.18-2.57,1.68-4.32,3.96-6.53,6.24-4.93,5.05-7.91,10.65-8.65,16.22-1.13,8.62,5.3,16.58,12.71,17.56,7.41.97,13-5.4,14.13-14.03.73-5.57-.71-11.75-4.17-17.91ZM96.32,111.6c-6.06-.8-11.56-7.34-10.64-14.4,1.33-10.16,10.23-17.78,13.06-19.76,2.22,2.64,10.24,12.48,8.91,22.64-.93,7.05-5.26,12.3-11.32,11.51ZM105.46,101.49c-1.2,4.13-4.47,7.05-8.19,7.33-.07,0-.14,0-.21,0-.67-.09-1.14-.8-1.03-1.58.09-.69.6-1.23,1.2-1.27,2.59-.16,5.06-2.38,5.88-5.27.21-.76.91-1.2,1.56-.98.65.22,1,1.01.78,1.77h0Z"/>
      <path class="st0" d="M95.45,114.72c-7.82-1.31-13.65-9.53-12.56-17.88.74-5.64,3.76-11.32,8.74-16.42.55-.57,1.08-1.14,1.59-1.7,1.56-1.7,3.03-3.3,5-4.59.62-.38,1.35-.28,1.84.24,2.17,2.42,4.62,5.22,6.15,7.97h0c3.49,6.22,4.95,12.48,4.21,18.12-1.21,9.25-7.32,15.27-14.52,14.33-.15-.02-.3-.04-.45-.07ZM99.13,74.6c-.18-.03-.36,0-.53.11-1.88,1.23-3.33,2.8-4.86,4.47-.52.57-1.05,1.14-1.61,1.72-4.87,5-7.83,10.54-8.55,16.03-.95,7.21,4.19,16.09,12.41,17.17,6.8.89,12.59-4.88,13.75-13.73.72-5.49-.71-11.61-4.12-17.69h0c-1.5-2.69-3.91-5.46-6.06-7.84-.12-.13-.27-.21-.43-.23ZM95.95,111.9c-5.86-.98-11.58-7.37-10.62-14.74,1.54-11.71,12.73-19.66,13.2-20l.26-.18.2.24c6.69,7.95,9.88,16.09,8.98,22.91-1.02,7.72-5.83,12.57-11.71,11.81h0c-.11-.01-.21-.03-.32-.05ZM98.67,77.92c-1.74,1.28-11.27,8.74-12.66,19.33-.93,7.11,4.69,13.27,10.35,14.01h0c5.47.71,9.97-3.9,10.93-11.21.86-6.56-2.2-14.41-8.62-22.13ZM104.45,100.02c-.2-.03-.36.02-.48.08-.25.13-.44.38-.53.69-.85,3.02-3.46,5.35-6.19,5.52-.43.03-.81.44-.88.97-.08.58.24,1.11.71,1.19.05,0,.11.01.17,0,3.55-.26,6.72-3.11,7.87-7.08.16-.58-.09-1.18-.56-1.35-.04-.01-.08-.02-.11-.03Z"/>
    </g>
  </g>
  <g>
    <path class="st0" d="M64.04,5.19v53.47c0,2.95,2.39,5.35,5.33,5.35h53.33c2.95,0,5.33-2.39,5.33-5.35V5.19c0-2.95-2.39-5.35-5.33-5.35h-53.33c-2.94,0-5.33,2.39-5.33,5.35ZM69.45,5.25h53.3v53.33h-53.3V5.25Z"/>
    <polyline class="st0" points="95.9 5.06 101.24 5.06 95.9 5.06 95.9 13.08 95.9 5.06 95.9 13.08 101.24 11.97 101.24 5.06"/>
    <g>
      <path class="st0" d="M106.2,18.88c-1.48-2.82-3.9-5.71-5.9-8.05-.37-.41-.92-.49-1.4-.22-2.61,1.62-4.42,3.85-6.68,6.08-5.05,4.93-8.17,10.45-9.04,16.01-1.34,8.59,4.89,16.71,12.28,17.86,7.39,1.16,13.13-5.08,14.47-13.68.87-5.55-.42-11.77-3.73-18ZM95.89,47.74c-6.04-.95-11.38-7.62-10.29-14.65,1.58-10.12,10.67-17.53,13.54-19.43,2.15,2.69,9.93,12.73,8.35,22.86-1.11,7.03-5.56,12.17-11.6,11.23ZM105.28,37.85c-1.3,4.1-4.64,6.94-8.36,7.12-.07,0-.14,0-.21-.01-.67-.11-1.12-.82-.99-1.61.11-.69.63-1.21,1.23-1.24,2.6-.1,5.12-2.25,6.01-5.12.23-.75.94-1.17,1.58-.94.64.23.97,1.04.74,1.79h0Z"/>
      <path class="st0" d="M94.95,50.83c-7.79-1.5-13.41-9.87-12.11-18.18.88-5.62,4.04-11.22,9.14-16.2.57-.56,1.11-1.12,1.64-1.66,1.6-1.66,3.11-3.23,5.11-4.46.63-.37,1.36-.25,1.83.28,2.11,2.47,4.49,5.33,5.95,8.12h0c3.34,6.3,4.64,12.6,3.76,18.22-1.44,9.21-7.69,15.09-14.87,13.97-.15-.02-.3-.05-.45-.08ZM99.61,10.81c-.18-.03-.36,0-.54.1-1.91,1.18-3.4,2.72-4.97,4.35-.53.55-1.08,1.12-1.65,1.68-5,4.87-8.09,10.34-8.94,15.81-1.12,7.18,3.79,16.18,11.99,17.47,6.78,1.06,12.7-4.57,14.08-13.39.86-5.47-.42-11.62-3.69-17.79h0c-1.43-2.72-3.78-5.55-5.86-7.99-.12-.13-.27-.21-.42-.24ZM95.52,48.02c-5.83-1.12-11.39-7.65-10.25-14.99,1.82-11.67,13.21-19.34,13.69-19.67l.26-.18.2.25c6.49,8.11,9.48,16.33,8.42,23.13-1.21,7.69-6.14,12.42-12,11.52h0c-.11-.02-.21-.04-.32-.06ZM99.08,14.12c-1.77,1.24-11.48,8.46-13.13,19.02-1.1,7.08,4.36,13.38,10,14.26h0c5.45.85,10.06-3.65,11.21-10.94,1.02-6.54-1.84-14.46-8.08-22.34ZM104.31,36.36c-.2-.04-.36.01-.48.07-.25.13-.45.37-.54.68-.93,3-3.59,5.26-6.32,5.36-.43.02-.82.42-.9.94-.09.58.21,1.11.68,1.2.05,0,.11.01.17.01,3.55-.18,6.79-2.94,8.04-6.88.18-.58-.06-1.19-.53-1.36-.04-.01-.08-.02-.11-.03Z"/>
    </g>
  </g>
  <g>
    <path class="st0" d="M58.75-.16H5.42c-2.95,0-5.33,2.39-5.33,5.35v53.47c0,2.95,2.39,5.35,5.33,5.35h53.33c2.94,0,5.33-2.39,5.33-5.35V5.19c0-2.95-2.39-5.35-5.33-5.35ZM58.67,58.58H5.36V5.25h53.3v53.33Z"/>
    <polyline class="st0" points="26.88 5.06 26.88 11.97 32.21 13.08 32.21 5.06 32.21 13.08 32.21 5.06 26.88 5.06 32.21 5.06"/>
    <g>
      <path class="st0" d="M37.21,17.43c-1.99-2.49-4.91-4.87-7.32-6.79-.44-.33-1-.31-1.41.05-2.26,2.08-3.61,4.62-5.42,7.23-4.03,5.79-6.05,11.81-5.86,17.43.3,8.69,7.95,15.48,15.43,15.22,7.47-.26,11.94-7.47,11.63-16.17-.2-5.62-2.63-11.48-7.06-16.98ZM32.53,47.71c-6.11.2-12.61-5.34-12.87-12.45-.36-10.24,7.17-19.23,9.63-21.64,2.62,2.24,12.15,10.63,12.51,20.87.24,7.11-3.16,13-9.27,13.22ZM39.88,36.23c-.51,4.27-3.25,7.69-6.87,8.58-.07.01-.14.02-.2.03-.68.02-1.25-.6-1.28-1.39-.02-.7.39-1.31.98-1.45,2.53-.59,4.6-3.18,4.93-6.16.09-.78.7-1.33,1.38-1.22.67.11,1.15.83,1.06,1.62h0Z"/>
      <path class="st0" d="M32.19,50.92c-7.93,0-15.03-7.16-15.33-15.57-.2-5.68,1.85-11.78,5.92-17.63.45-.65.88-1.3,1.29-1.94,1.26-1.93,2.45-3.76,4.17-5.35.55-.48,1.29-.5,1.86-.07,2.54,2.03,5.41,4.39,7.38,6.85h0c4.47,5.56,6.93,11.5,7.13,17.18.32,9.32-4.71,16.27-11.97,16.52-.15,0-.3,0-.46,0ZM29.21,10.75c-.18,0-.36.07-.51.2-1.66,1.52-2.82,3.31-4.06,5.21-.42.64-.85,1.3-1.3,1.96-3.99,5.73-5.99,11.68-5.8,17.22.25,7.27,6.78,15.18,15.07,14.89,6.86-.24,11.61-6.89,11.3-15.81-.19-5.53-2.61-11.33-6.98-16.77h0c-1.92-2.4-4.76-4.74-7.26-6.74-.14-.11-.3-.16-.46-.16ZM32.22,48.06c-5.94,0-12.63-5.36-12.9-12.79-.41-11.81,9.32-21.49,9.73-21.9l.23-.22.24.21c7.91,6.74,12.39,14.24,12.63,21.12.26,7.78-3.69,13.36-9.61,13.58h0c-.11,0-.22,0-.33,0ZM29.31,14.09c-1.5,1.55-9.67,10.48-9.3,21.16.26,7.16,6.8,12.32,12.51,12.11h0c5.51-.2,9.19-5.49,8.94-12.86-.23-6.61-4.54-13.85-12.14-20.41ZM38.64,34.94c-.2,0-.35.08-.46.16-.22.17-.37.45-.41.77-.34,3.12-2.53,5.84-5.2,6.46-.42.1-.73.57-.71,1.1.02.59.42,1.05.9,1.05.05,0,.11,0,.17-.02,3.46-.84,6.11-4.17,6.6-8.28.07-.6-.28-1.15-.77-1.23-.04,0-.08,0-.12,0Z"/>
    </g>
  </g>
</svg>
