<?xml version="1.0" encoding="UTF-8"?>
<svg xmlns="http://www.w3.org/2000/svg" id="Layer_1" version="1.1" viewBox="0 0 128 128" width="128" height="128">
  <!-- Generator: Adobe Illustrator 29.1.0, SVG Export Plug-In . SVG Version: 2.1.0 Build 142)  -->
  <defs>
    <style>
      .st0 {
        fill: #010101;
      }
    </style>
  </defs>
  <g>
    <path class="st0" d="M58.74,0H5.34c-2.95,0-5.34,2.39-5.34,5.33v53.35c0,2.95,2.39,5.33,5.34,5.33h53.4c2.95,0,5.34-2.39,5.34-5.33V5.33C64.08,2.39,61.68,0,58.74,0ZM32.04,58.68v-8c0-.71-.28-1.39-.78-1.89l-5.34-5.33c.52-1.08.78-2.25.78-3.45,0-4.42-3.59-8-8.01-8s-8.01,3.58-8.01,8,3.59,8,8.01,8c1.19,0,2.37-.27,3.45-.78l4.56,4.55v6.9H5.34V5.33h16.02v7.33c-3.29,1.09-5.67,4.09-5.67,7.65,0,4.48,3.73,8.12,8.34,8.12.99,0,1.93-.2,2.81-.51l10.24,10.23c-.3.8-.49,1.66-.49,2.57,0,3.62,2.63,6.64,6.13,7.35v10.61h-10.68ZM58.74,58.68h-10.68v-11.44c2.35-1.29,3.95-3.71,3.95-6.52s-1.6-5.23-3.95-6.52v-7.99c4.17-1.47,6.36-6.05,4.88-10.21-1.47-4.17-6.05-6.35-10.22-4.88-4.17,1.47-6.36,6.05-4.88,10.21.81,2.28,2.6,4.07,4.88,4.88v7.16c-.75.15-1.43.44-2.08.78l-9.56-9.55c.8-1.25,1.29-2.71,1.29-4.3,0-3.57-2.38-6.57-5.67-7.65v-7.33h32.04v53.35Z"/>
    <path class="st0" d="M64.08,122.67v-53.35c0-2.95-2.39-5.33-5.34-5.33H5.34C2.39,63.98,0,66.37,0,69.32v53.35c0,2.95,2.39,5.33,5.34,5.33h53.4c2.95,0,5.34-2.39,5.34-5.33ZM42.72,69.32v10.61c-3.5.71-6.13,3.73-6.13,7.35,0,.91.19,1.76.49,2.57l-10.24,10.23c-.88-.31-1.82-.51-2.81-.51-4.6,0-8.34,3.63-8.34,8.12,0,3.57,2.38,6.57,5.67,7.65v7.33H5.34v-53.35h21.36v6.9s-4.56,4.55-4.56,4.55c-1.08-.52-2.26-.79-3.45-.78-4.42,0-8.01,3.58-8.01,8s3.59,8,8.01,8,8.01-3.58,8.01-8c0-1.19-.26-2.37-.78-3.45l5.34-5.33c.5-.5.78-1.18.78-1.89v-8h10.68ZM58.74,122.67H26.7v-7.33c3.29-1.09,5.67-4.09,5.67-7.65,0-1.58-.48-3.05-1.29-4.3l9.56-9.55c.65.35,1.34.63,2.08.78v7.16c-2.28.81-4.08,2.6-4.88,4.88-1.47,4.17.71,8.74,4.88,10.21,4.17,1.47,8.75-.71,10.22-4.88,1.47-4.17-.71-8.74-4.88-10.21v-7.99c2.35-1.29,3.95-3.71,3.95-6.52s-1.6-5.23-3.95-6.52v-11.44h10.68v53.35Z"/>
  </g>
  <g>
    <path class="st0" d="M69.26,128h53.4c2.95,0,5.34-2.39,5.34-5.33v-53.35c0-2.95-2.39-5.33-5.34-5.33h-53.4c-2.95,0-5.34,2.39-5.34,5.33v53.35c0,2.95,2.39,5.33,5.34,5.33ZM95.96,69.32v8c0,.71.28,1.39.78,1.89l5.34,5.33c-.52,1.08-.78,2.25-.78,3.45,0,4.42,3.59,8,8.01,8s8.01-3.58,8.01-8-3.59-8-8.01-8c-1.19,0-2.37.27-3.45.78l-4.56-4.55v-6.9h21.36v53.35h-16.02v-7.33c3.29-1.09,5.67-4.09,5.67-7.65,0-4.48-3.73-8.12-8.34-8.12-.99,0-1.93.2-2.81.51l-10.24-10.23c.3-.8.49-1.66.49-2.57,0-3.62-2.63-6.64-6.13-7.35v-10.61h10.68ZM69.26,69.32h10.68v11.44c-2.35,1.29-3.95,3.71-3.95,6.52s1.6,5.23,3.95,6.52v7.99c-4.17,1.47-6.36,6.05-4.88,10.21,1.47,4.17,6.05,6.35,10.22,4.88,4.17-1.47,6.36-6.05,4.88-10.21-.81-2.28-2.6-4.07-4.88-4.88v-7.16c.75-.15,1.43-.44,2.08-.78l9.56,9.55c-.8,1.25-1.29,2.71-1.29,4.3,0,3.57,2.38,6.57,5.67,7.65v7.33h-32.04v-53.35Z"/>
    <path class="st0" d="M63.92,5.33v53.35c0,2.95,2.39,5.33,5.34,5.33h53.4c2.95,0,5.34-2.39,5.34-5.33V5.33c0-2.95-2.39-5.33-5.34-5.33h-53.4c-2.95,0-5.34,2.39-5.34,5.33ZM85.28,58.68v-10.61c3.5-.71,6.13-3.73,6.13-7.35,0-.91-.19-1.76-.49-2.57l10.24-10.23c.88.31,1.82.51,2.81.51,4.6,0,8.34-3.63,8.34-8.12,0-3.57-2.38-6.57-5.67-7.65v-7.33h16.02v53.35h-21.36v-6.9s4.56-4.55,4.56-4.55c1.08.52,2.26.79,3.45.78,4.42,0,8.01-3.58,8.01-8,0-4.42-3.59-8-8.01-8s-8.01,3.58-8.01,8c0,1.19.26,2.37.78,3.45l-5.34,5.33c-.5.5-.78,1.18-.78,1.89v8h-10.68ZM69.26,5.33h32.04v7.33c-3.29,1.09-5.67,4.09-5.67,7.65,0,1.58.48,3.05,1.29,4.3l-9.56,9.55c-.65-.35-1.34-.63-2.08-.78v-7.16c2.28-.81,4.08-2.6,4.88-4.88,1.47-4.17-.71-8.74-4.88-10.21-4.17-1.47-8.75.71-10.22,4.88-1.47,4.17.71,8.74,4.88,10.21v7.99c-2.35,1.29-3.95,3.71-3.95,6.52,0,2.81,1.6,5.23,3.95,6.52v11.44h-10.68V5.33Z"/>
  </g>
</svg>
