<?xml version="1.0" encoding="UTF-8"?>
<svg xmlns="http://www.w3.org/2000/svg" id="Layer_1" version="1.1" viewBox="0 0 128 128" width="128" height="128">
  <!-- Generator: Adobe Illustrator 29.1.0, SVG Export Plug-In . SVG Version: 2.1.0 Build 142)  -->
  <defs>
    <style>
      .st0 {
        fill: #010101;
      }
    </style>
  </defs>
  <g>
    <path class="st0" d="M58.77,0H5.44C2.5,0,.11,2.38.11,5.33v53.35c0,2.95,2.39,5.33,5.33,5.33h53.33c2.94,0,5.33-2.39,5.33-5.33V5.33C64.1,2.38,61.71,0,58.77,0ZM32.1,58.68v-8c0-.71-.28-1.39-.78-1.89l-5.33-5.33c.52-1.08.78-2.25.78-3.45,0-4.42-3.58-8-8-8s-8,3.58-8,8,3.58,8,8,8c1.19,0,2.37-.27,3.45-.78l4.55,4.55v6.9H5.44V5.33h16v7.33c-3.28,1.09-5.66,4.09-5.66,7.65,0,4.48,3.73,8.12,8.33,8.12.99,0,1.93-.2,2.81-.51l10.23,10.23c-.3.8-.49,1.66-.49,2.57,0,3.62,2.62,6.64,6.12,7.35v10.61h-10.67ZM58.77,58.68h-10.67v-11.44c2.35-1.29,3.95-3.71,3.95-6.52s-1.6-5.23-3.95-6.52v-7.99c4.16-1.47,6.35-6.05,4.88-10.21-1.47-4.17-6.04-6.35-10.21-4.88-4.17,1.47-6.35,6.05-4.88,10.21.8,2.28,2.6,4.07,4.88,4.88v7.16c-.75.15-1.43.44-2.08.78l-9.54-9.55c.8-1.25,1.29-2.71,1.29-4.3,0-3.57-2.38-6.57-5.66-7.65v-7.33h32v53.35Z"/>
    <path class="st0" d="M58.61,63.97H5.28c-2.95,0-5.33,2.39-5.33,5.33v53.35c0,2.95,2.39,5.33,5.33,5.33h53.33c2.94,0,5.33-2.39,5.33-5.33v-53.35c0-2.95-2.39-5.33-5.33-5.33ZM58.53,122.57H5.23v-53.21h53.3v53.21Z"/>
    <g>
      <path class="st0" d="M69.28,127.99h53.33c2.95,0,5.33-2.39,5.33-5.33v-53.35c0-2.95-2.39-5.33-5.33-5.33h-53.33c-2.94,0-5.33,2.39-5.33,5.33v53.35c0,2.95,2.39,5.33,5.33,5.33ZM95.95,69.31v8c0,.71.28,1.39.78,1.89l5.33,5.33c-.52,1.08-.78,2.25-.78,3.45,0,4.42,3.58,8,8,8s8-3.58,8-8-3.58-8-8-8c-1.19,0-2.37.27-3.45.78l-4.55-4.55v-6.9h21.33v53.35h-16v-7.33c3.28-1.09,5.66-4.09,5.66-7.65,0-4.48-3.73-8.12-8.33-8.12-.99,0-1.93.2-2.81.51l-10.23-10.23c.3-.8.49-1.66.49-2.57,0-3.62-2.62-6.64-6.12-7.35v-10.61h10.67ZM69.28,69.31h10.67v11.44c-2.35,1.29-3.95,3.71-3.95,6.52s1.6,5.23,3.95,6.52v7.99c-4.16,1.47-6.35,6.05-4.88,10.21,1.47,4.17,6.04,6.35,10.21,4.88,4.17-1.47,6.35-6.05,4.88-10.21-.8-2.28-2.6-4.07-4.88-4.88v-7.16c.75-.15,1.43-.44,2.08-.78l9.54,9.55c-.8,1.25-1.29,2.71-1.29,4.3,0,3.57,2.38,6.57,5.66,7.65v7.33h-32v-53.35Z"/>
      <path class="st0" d="M63.95,5.33v53.35c0,2.95,2.39,5.33,5.33,5.33h53.33c2.95,0,5.33-2.39,5.33-5.33V5.33c0-2.95-2.39-5.33-5.33-5.33h-53.33c-2.94,0-5.33,2.39-5.33,5.33ZM85.28,58.68v-10.61c3.49-.71,6.12-3.73,6.12-7.35,0-.91-.19-1.76-.49-2.57l10.23-10.23c.88.31,1.82.51,2.81.51,4.6,0,8.33-3.63,8.33-8.12,0-3.57-2.38-6.57-5.66-7.65v-7.33h16v53.35h-21.33v-6.9s4.55-4.55,4.55-4.55c1.07.52,2.25.79,3.45.78,4.42,0,8-3.58,8-8,0-4.42-3.58-8-8-8-4.42,0-8,3.58-8,8,0,1.19.26,2.37.78,3.45l-5.33,5.33c-.5.5-.78,1.18-.78,1.89v8h-10.67ZM69.28,5.33h32v7.33c-3.28,1.09-5.66,4.09-5.66,7.65,0,1.58.48,3.05,1.29,4.3l-9.54,9.55c-.65-.35-1.34-.63-2.08-.78v-7.16c2.28-.81,4.07-2.6,4.88-4.88,1.47-4.17-.71-8.74-4.88-10.21-4.16-1.47-8.73.71-10.21,4.88-1.47,4.17.71,8.74,4.88,10.21v7.99c-2.35,1.29-3.95,3.71-3.95,6.52,0,2.81,1.6,5.23,3.95,6.52v11.44h-10.67V5.33Z"/>
    </g>
  </g>
  <polyline class="st0" points="26.74 68.89 26.74 75.78 32.07 76.89 32.07 68.89 32.07 76.89 32.07 68.89 26.74 68.89 32.07 68.89"/>
  <g>
    <path class="st0" d="M37.07,81.23c-1.99-2.48-4.91-4.86-7.32-6.78-.44-.33-1-.31-1.41.05-2.26,2.08-3.61,4.61-5.42,7.22-4.03,5.78-6.05,11.78-5.86,17.39.3,8.67,7.95,15.45,15.43,15.19,7.47-.26,11.94-7.45,11.63-16.13-.2-5.6-2.63-11.45-7.06-16.94ZM32.39,111.44c-6.11.2-12.61-5.32-12.87-12.42-.36-10.21,7.17-19.18,9.63-21.59,2.62,2.23,12.15,10.6,12.51,20.82.24,7.09-3.16,12.97-9.27,13.19ZM39.74,99.98c-.51,4.26-3.25,7.67-6.87,8.56-.07.01-.14.02-.2.03-.68.02-1.25-.6-1.28-1.39-.02-.7.39-1.31.98-1.44,2.53-.59,4.6-3.17,4.93-6.15.09-.78.7-1.33,1.38-1.22.67.11,1.15.83,1.06,1.61h0Z"/>
    <path class="st0" d="M32.05,114.64c-7.93,0-15.03-7.14-15.33-15.53-.2-5.67,1.85-11.75,5.92-17.59.45-.65.88-1.3,1.29-1.94,1.26-1.93,2.45-3.75,4.17-5.34.55-.48,1.29-.5,1.86-.07,2.54,2.02,5.41,4.38,7.38,6.83h0c4.47,5.54,6.93,11.47,7.13,17.14.32,9.3-4.71,16.23-11.97,16.49-.15,0-.3,0-.46,0ZM29.08,74.56c-.18,0-.36.07-.51.2-1.66,1.52-2.82,3.31-4.06,5.2-.42.64-.85,1.3-1.3,1.96-3.99,5.72-5.99,11.66-5.8,17.18.25,7.25,6.78,15.14,15.07,14.86,6.86-.24,11.61-6.87,11.3-15.77-.19-5.52-2.61-11.31-6.98-16.73h0c-1.92-2.4-4.76-4.73-7.26-6.72-.14-.11-.3-.16-.46-.16ZM32.08,111.79c-5.94,0-12.63-5.35-12.9-12.76-.41-11.78,9.32-21.44,9.73-21.85l.23-.22.24.21c7.91,6.73,12.39,14.21,12.63,21.07.26,7.76-3.69,13.33-9.61,13.54h0c-.11,0-.22,0-.33,0ZM29.17,77.9c-1.5,1.55-9.67,10.45-9.3,21.11.26,7.15,6.8,12.29,12.51,12.08h0c5.51-.2,9.19-5.47,8.94-12.83-.23-6.6-4.54-13.82-12.14-20.36ZM38.5,98.7c-.2,0-.35.08-.46.16-.22.17-.37.45-.41.76-.34,3.12-2.53,5.83-5.2,6.45-.42.1-.73.57-.71,1.1.02.59.42,1.05.9,1.05.05,0,.11,0,.17-.02,3.46-.84,6.11-4.16,6.6-8.26.07-.6-.28-1.15-.77-1.23-.04,0-.08,0-.12,0Z"/>
  </g>
</svg>
