<?xml version="1.0" encoding="UTF-8"?>
<svg xmlns="http://www.w3.org/2000/svg" id="Layer_1" version="1.1" viewBox="0 0 128 128" width="512" height="512">
  <!-- Generator: Adobe Illustrator 29.1.0, SVG Export Plug-In . SVG Version: 2.1.0 Build 142)  -->
  <defs>
    <style>
      .st0 {
        fill: #010101;
      }
    </style>
  </defs>
  <path class="st0" d="M58.76.03H5.43C2.49.03.1,2.42.1,5.38v53.47c0,2.95,2.39,5.35,5.33,5.35h53.33c2.94,0,5.33-2.39,5.33-5.35V5.38C64.09,2.42,61.71.03,58.76.03ZM32.1,58.85v-8.02c0-.71-.28-1.39-.78-1.89l-5.33-5.35c.52-1.08.78-2.26.78-3.46,0-4.43-3.58-8.02-8-8.02s-8,3.59-8,8.02,3.58,8.02,8,8.02c1.19,0,2.37-.27,3.45-.79l4.55,4.57v6.91H5.43V5.38h16v7.34c-3.28,1.09-5.66,4.09-5.66,7.67,0,4.49,3.73,8.14,8.33,8.14.99,0,1.93-.2,2.81-.51l10.23,10.25c-.3.81-.49,1.67-.49,2.57,0,3.63,2.63,6.65,6.12,7.36v10.64h-10.67ZM58.76,58.85h-10.67v-11.47c2.35-1.29,3.95-3.72,3.95-6.53s-1.6-5.24-3.95-6.53v-8.01c4.16-1.48,6.35-6.06,4.88-10.24-1.47-4.18-6.04-6.37-10.21-4.89-4.17,1.48-6.35,6.06-4.88,10.24.8,2.28,2.6,4.08,4.88,4.89v7.18c-.75.15-1.43.44-2.08.78l-9.54-9.57c.8-1.25,1.29-2.72,1.29-4.31,0-3.58-2.38-6.58-5.66-7.67v-7.34h32v53.47Z"/>
  <g>
    <path class="st0" d="M58.6,63.86H5.27c-2.95,0-5.33,2.39-5.33,5.35v53.47c0,2.95,2.39,5.35,5.33,5.35h53.33c2.94,0,5.33-2.39,5.33-5.35v-53.47c0-2.95-2.39-5.35-5.33-5.35ZM58.52,122.61H5.22v-53.33h53.3v53.33Z"/>
    <polyline class="st0" points="26.73 69.08 26.73 75.99 32.06 77.1 32.06 69.08 32.06 77.1 32.06 69.08 26.73 69.08 32.06 69.08"/>
    <g>
      <path class="st0" d="M37.06,81.45c-1.99-2.49-4.91-4.87-7.32-6.79-.44-.33-1-.31-1.41.05-2.26,2.08-3.61,4.62-5.42,7.23-4.03,5.79-6.05,11.81-5.86,17.43.3,8.69,7.95,15.48,15.43,15.22,7.47-.26,11.94-7.47,11.63-16.17-.2-5.62-2.63-11.48-7.06-16.98ZM32.38,111.73c-6.11.2-12.61-5.34-12.87-12.45-.36-10.24,7.17-19.23,9.63-21.64,2.62,2.24,12.15,10.63,12.51,20.87.24,7.11-3.16,13-9.27,13.22ZM39.73,100.25c-.51,4.27-3.25,7.69-6.87,8.58-.07.01-.14.02-.2.03-.68.02-1.25-.6-1.28-1.39-.02-.7.39-1.31.98-1.45,2.53-.59,4.6-3.18,4.93-6.16.09-.78.7-1.33,1.38-1.22.67.11,1.15.83,1.06,1.62h0Z"/>
      <path class="st0" d="M32.04,114.94c-7.93,0-15.03-7.16-15.33-15.57-.2-5.68,1.85-11.78,5.92-17.63.45-.65.88-1.3,1.29-1.94,1.26-1.93,2.45-3.76,4.17-5.35.55-.48,1.29-.5,1.86-.07,2.54,2.03,5.41,4.39,7.38,6.85h0c4.47,5.56,6.93,11.5,7.13,17.18.32,9.32-4.71,16.27-11.97,16.52-.15,0-.3,0-.46,0ZM29.07,74.77c-.18,0-.36.07-.51.2-1.66,1.52-2.82,3.31-4.06,5.21-.42.64-.85,1.3-1.3,1.96-3.99,5.73-5.99,11.68-5.8,17.22.25,7.27,6.78,15.18,15.07,14.89,6.86-.24,11.61-6.89,11.3-15.81-.19-5.53-2.61-11.33-6.98-16.77h0c-1.92-2.4-4.76-4.74-7.26-6.74-.14-.11-.3-.16-.46-.16ZM32.07,112.08c-5.94,0-12.63-5.36-12.9-12.79-.41-11.81,9.32-21.49,9.73-21.9l.23-.22.24.21c7.91,6.74,12.39,14.24,12.63,21.12.26,7.78-3.69,13.36-9.61,13.58h0c-.11,0-.22,0-.33,0ZM29.17,78.11c-1.5,1.55-9.67,10.48-9.3,21.16.26,7.16,6.8,12.32,12.51,12.11h0c5.51-.2,9.19-5.49,8.94-12.86-.23-6.61-4.54-13.85-12.14-20.41ZM38.5,98.97c-.2,0-.35.08-.46.16-.22.17-.37.45-.41.77-.34,3.12-2.53,5.84-5.2,6.46-.42.1-.73.57-.71,1.1.02.59.42,1.05.9,1.05.05,0,.11,0,.17-.02,3.46-.84,6.11-4.17,6.6-8.28.07-.6-.28-1.15-.77-1.23-.04,0-.08,0-.12,0Z"/>
    </g>
  </g>
  <g>
    <path class="st0" d="M63.94,69.21v53.47c0,2.95,2.39,5.35,5.33,5.35h53.33c2.95,0,5.33-2.39,5.33-5.35v-53.47c0-2.95-2.39-5.35-5.33-5.35h-53.33c-2.94,0-5.33,2.39-5.33,5.35ZM69.35,69.27h53.3v53.33h-53.3v-53.33Z"/>
    <polyline class="st0" points="95.81 69.08 101.14 69.08 95.81 69.08 95.81 77.1 95.81 69.08 95.81 77.1 101.14 75.99 101.14 69.08"/>
    <g>
      <path class="st0" d="M105.96,82.79c-1.52-2.8-3.98-5.66-6.01-7.97-.37-.4-.93-.48-1.4-.2-2.59,1.65-4.37,3.91-6.6,6.17-4.99,4.99-8.04,10.56-8.83,16.12-1.23,8.61,5.11,16.64,12.51,17.7,7.4,1.06,13.06-5.25,14.3-13.86.8-5.56-.57-11.76-3.96-17.95ZM96.02,111.78c-6.05-.87-11.48-7.48-10.48-14.52,1.45-10.14,10.44-17.66,13.29-19.6,2.19,2.66,10.09,12.6,8.64,22.75-1.01,7.04-5.4,12.24-11.45,11.38ZM105.28,101.77c-1.25,4.11-4.55,7-8.27,7.23-.07,0-.14,0-.21,0-.67-.1-1.13-.81-1.02-1.59.1-.69.61-1.22,1.22-1.25,2.59-.13,5.09-2.32,5.94-5.2.22-.76.93-1.19,1.57-.96.64.23.99,1.02.76,1.78h0Z"/>
      <path class="st0" d="M95.12,114.88c-7.8-1.4-13.54-9.69-12.35-18.02.81-5.63,3.89-11.27,8.93-16.32.56-.56,1.09-1.13,1.61-1.69,1.58-1.68,3.07-3.27,5.05-4.53.62-.37,1.36-.26,1.84.26,2.14,2.44,4.55,5.28,6.06,8.04h0c3.42,6.26,4.8,12.54,4,18.17-1.32,9.23-7.5,15.19-14.69,14.16-.15-.02-.3-.05-.45-.07ZM99.26,74.81c-.18-.03-.36,0-.54.11-1.9,1.21-3.36,2.77-4.91,4.41-.53.56-1.06,1.13-1.63,1.7-4.93,4.94-7.95,10.44-8.74,15.93-1.03,7.2,4,16.13,12.21,17.31,6.79.97,12.64-4.73,13.9-13.57.78-5.48-.57-11.61-3.92-17.74h0c-1.47-2.7-3.85-5.5-5.96-7.91-.12-.13-.27-.21-.42-.24ZM95.65,112.07c-5.85-1.05-11.49-7.5-10.45-14.86,1.67-11.7,12.96-19.51,13.44-19.84l.26-.18.2.24c6.6,8.03,9.69,16.2,8.72,23.02-1.11,7.7-5.98,12.5-11.85,11.67h0c-.11-.02-.21-.03-.32-.05ZM98.77,78.12c-1.75,1.26-11.37,8.61-12.88,19.19-1.01,7.1,4.53,13.32,10.18,14.13h0c5.46.78,10.01-3.78,11.06-11.08.94-6.55-2.03-14.43-8.36-22.23ZM104.29,100.29c-.2-.03-.36.02-.48.08-.25.13-.44.38-.53.68-.89,3.01-3.52,5.31-6.25,5.45-.43.02-.82.43-.89.96-.08.58.23,1.11.7,1.2.05,0,.11.01.17.01,3.55-.22,6.75-3.03,7.95-6.99.17-.58-.07-1.19-.55-1.35-.04-.01-.08-.02-.11-.03Z"/>
    </g>
  </g>
  <g>
    <path class="st0" d="M63.94,5.38v53.47c0,2.95,2.39,5.35,5.33,5.35h53.33c2.95,0,5.33-2.39,5.33-5.35V5.38c0-2.95-2.39-5.35-5.33-5.35h-53.33c-2.94,0-5.33,2.39-5.33,5.35ZM69.35,5.44h53.3v53.33h-53.3V5.44Z"/>
    <polyline class="st0" points="95.81 5.25 101.14 5.25 95.81 5.25 95.81 13.27 95.81 5.25 95.81 13.27 101.14 12.16 101.14 5.25"/>
    <g>
      <path class="st0" d="M106.15,19.1c-1.47-2.82-3.89-5.72-5.88-8.07-.36-.41-.92-.5-1.39-.22-2.62,1.61-4.43,3.84-6.7,6.06-5.07,4.91-8.21,10.43-9.09,15.98-1.37,8.59,4.83,16.72,12.22,17.9,7.38,1.18,13.15-5.04,14.52-13.63.89-5.55-.38-11.77-3.67-18.02ZM95.74,47.92c-6.04-.97-11.35-7.66-10.24-14.69,1.61-10.11,10.73-17.49,13.6-19.39,2.14,2.7,9.89,12.76,8.27,22.88-1.13,7.02-5.6,12.15-11.64,11.19ZM105.16,38.07c-1.32,4.09-4.66,6.92-8.39,7.1-.07,0-.14,0-.21-.01-.67-.11-1.11-.83-.99-1.61.11-.69.63-1.21,1.24-1.23,2.6-.09,5.13-2.23,6.02-5.1.24-.75.95-1.17,1.59-.93.64.24.97,1.04.73,1.79h0Z"/>
      <path class="st0" d="M94.79,51.01c-7.78-1.52-13.38-9.91-12.06-18.22.9-5.62,4.08-11.21,9.2-16.17.57-.56,1.11-1.11,1.64-1.66,1.61-1.66,3.12-3.22,5.12-4.45.63-.36,1.36-.24,1.83.29,2.11,2.48,4.47,5.35,5.93,8.14h0c3.32,6.31,4.6,12.62,3.7,18.23-1.47,9.21-7.74,15.06-14.92,13.92-.15-.02-.3-.05-.45-.08ZM99.58,11.01c-.18-.03-.36,0-.54.1-1.92,1.18-3.41,2.71-4.98,4.33-.54.55-1.08,1.11-1.66,1.67-5.01,4.86-8.12,10.31-8.99,15.78-1.15,7.18,3.74,16.2,11.93,17.51,6.78,1.08,12.72-4.53,14.12-13.34.87-5.47-.38-11.62-3.63-17.8h0c-1.43-2.73-3.76-5.56-5.84-8.01-.12-.13-.26-.21-.42-.24ZM95.37,48.2c-5.83-1.14-11.37-7.69-10.2-15.03,1.86-11.67,13.27-19.3,13.76-19.62l.26-.17.2.25c6.47,8.14,9.43,16.36,8.34,23.15-1.24,7.69-6.18,12.4-12.03,11.48h0c-.11-.02-.21-.04-.32-.06ZM99.04,14.31c-1.77,1.23-11.51,8.42-13.19,18.97-1.12,7.08,4.31,13.39,9.95,14.29h0c5.45.86,10.07-3.62,11.24-10.9,1.04-6.53-1.8-14.46-8-22.36ZM104.19,36.57c-.19-.04-.36.01-.48.07-.25.12-.45.37-.55.67-.94,3-3.61,5.25-6.34,5.34-.43.01-.82.42-.91.94-.09.58.21,1.12.68,1.21.05,0,.11.01.17.01,3.56-.16,6.8-2.92,8.07-6.86.18-.58-.05-1.19-.52-1.36-.04-.01-.08-.02-.11-.03Z"/>
    </g>
  </g>
</svg>
